<?xml version="1.0" encoding="utf-8"?>
<!-- Generator: Adobe Illustrator 19.0.0, SVG Export Plug-In . SVG Version: 6.00 Build 0)  -->
<svg version="1.1" id="Layer_1" xmlns="http://www.w3.org/2000/svg" xmlns:xlink="http://www.w3.org/1999/xlink" x="0px" y="0px"
	 viewBox="0 0 1920 1080" style="enable-background:new 0 0 1920 1080;" xml:space="preserve">
<style type="text/css">
	.st0{opacity:0.65;fill:#006837;}
	.st1{opacity:0.61;fill:#FF0043;}
	.st2{opacity:0.65;fill:#0071BC;}
</style>
<path id="XMLID_357_" class="st0" d="M1920,472c-45.2,0.8-95.1,28.2-132.5,48.8c-217.8,120-203.9,338.6-319.3,364.9
	c-168.6,38.4-312.2-402.3-521.1-380.7c-170.5,17.7-235.8,328-335.1,308.8c-108.2-20.9-46.9-392.7-205.3-461.4
	C293.1,303.1,105.8,427.3,0,583.5V1080h1920V472z"/>
<path id="XMLID_148_" class="st1" d="M1585.8,868.2c-161.9,31.5-248.6-277.9-498.2-280.7C919.8,585.6,881,737.2,740.2,705
	c-218.7-49.9-263-363.9-431.6-375.4c-70.1-4.8-170.7,42-303.5,271.9L0,1080h1920V386.8C1808.8,434.5,1762.9,833.7,1585.8,868.2z"/>
<path id="XMLID_147_" class="st2" d="M1492.8,1005c-24.5-8.2-21.1-47.9-47.4-124.6c-50.3-147-178.8-340-315.8-361.4
	c-180.4-28.2-275,258.2-424.6,224.6c-162-36.4-143.4-379.9-301.8-424.6C327.9,297.8,206,342.7,0,613.1V1080h1920V354.6
	C1647,911.2,1539,1020.5,1492.8,1005z"/>
</svg>
